solid Exported from Blender-2.91.0
facet normal 0.098017 0.995185 0.000000
outer loop
vertex 0.000000 1.000000 -10.000000
vertex 0.000000 1.000000 10.000000
vertex 0.195090 0.980785 10.000000
endloop
endfacet
facet normal 0.098017 0.995185 0.000000
outer loop
vertex 0.000000 1.000000 -10.000000
vertex 0.195090 0.980785 10.000000
vertex 0.195090 0.980785 -10.000000
endloop
endfacet
facet normal 0.290285 0.956940 0.000000
outer loop
vertex 0.195090 0.980785 -10.000000
vertex 0.195090 0.980785 10.000000
vertex 0.382683 0.923880 10.000000
endloop
endfacet
facet normal 0.290285 0.956940 0.000000
outer loop
vertex 0.195090 0.980785 -10.000000
vertex 0.382683 0.923880 10.000000
vertex 0.382683 0.923880 -10.000000
endloop
endfacet
facet normal 0.471397 0.881921 0.000000
outer loop
vertex 0.382683 0.923880 -10.000000
vertex 0.382683 0.923880 10.000000
vertex 0.555570 0.831470 10.000000
endloop
endfacet
facet normal 0.471397 0.881921 0.000000
outer loop
vertex 0.382683 0.923880 -10.000000
vertex 0.555570 0.831470 10.000000
vertex 0.555570 0.831470 -10.000000
endloop
endfacet
facet normal 0.634393 0.773010 0.000000
outer loop
vertex 0.555570 0.831470 -10.000000
vertex 0.555570 0.831470 10.000000
vertex 0.707107 0.707107 10.000000
endloop
endfacet
facet normal 0.634393 0.773010 0.000000
outer loop
vertex 0.555570 0.831470 -10.000000
vertex 0.707107 0.707107 10.000000
vertex 0.707107 0.707107 -10.000000
endloop
endfacet
facet normal 0.773011 0.634393 0.000000
outer loop
vertex 0.707107 0.707107 -10.000000
vertex 0.707107 0.707107 10.000000
vertex 0.831470 0.555570 10.000000
endloop
endfacet
facet normal 0.773010 0.634394 0.000000
outer loop
vertex 0.707107 0.707107 -10.000000
vertex 0.831470 0.555570 10.000000
vertex 0.831470 0.555570 -10.000000
endloop
endfacet
facet normal 0.881921 0.471397 0.000000
outer loop
vertex 0.831470 0.555570 -10.000000
vertex 0.831470 0.555570 10.000000
vertex 0.923880 0.382683 10.000000
endloop
endfacet
facet normal 0.881921 0.471397 0.000000
outer loop
vertex 0.831470 0.555570 -10.000000
vertex 0.923880 0.382683 10.000000
vertex 0.923880 0.382683 -10.000000
endloop
endfacet
facet normal 0.956940 0.290285 0.000000
outer loop
vertex 0.923880 0.382683 -10.000000
vertex 0.923880 0.382683 10.000000
vertex 0.980785 0.195090 10.000000
endloop
endfacet
facet normal 0.956940 0.290285 0.000000
outer loop
vertex 0.923880 0.382683 -10.000000
vertex 0.980785 0.195090 10.000000
vertex 0.980785 0.195090 -10.000000
endloop
endfacet
facet normal 0.995185 0.098017 0.000000
outer loop
vertex 0.980785 0.195090 -10.000000
vertex 0.980785 0.195090 10.000000
vertex 1.000000 0.000000 10.000000
endloop
endfacet
facet normal 0.995185 0.098018 0.000000
outer loop
vertex 0.980785 0.195090 -10.000000
vertex 1.000000 0.000000 10.000000
vertex 1.000000 0.000000 -10.000000
endloop
endfacet
facet normal 0.995185 -0.098017 0.000000
outer loop
vertex 1.000000 0.000000 -10.000000
vertex 1.000000 0.000000 10.000000
vertex 0.980785 -0.195090 10.000000
endloop
endfacet
facet normal 0.995185 -0.098018 0.000000
outer loop
vertex 1.000000 0.000000 -10.000000
vertex 0.980785 -0.195090 10.000000
vertex 0.980785 -0.195090 -10.000000
endloop
endfacet
facet normal 0.956940 -0.290285 0.000000
outer loop
vertex 0.980785 -0.195090 -10.000000
vertex 0.980785 -0.195090 10.000000
vertex 0.923880 -0.382683 10.000000
endloop
endfacet
facet normal 0.956940 -0.290285 0.000000
outer loop
vertex 0.980785 -0.195090 -10.000000
vertex 0.923880 -0.382683 10.000000
vertex 0.923880 -0.382683 -10.000000
endloop
endfacet
facet normal 0.881921 -0.471396 0.000000
outer loop
vertex 0.923880 -0.382683 -10.000000
vertex 0.923880 -0.382683 10.000000
vertex 0.831470 -0.555570 10.000000
endloop
endfacet
facet normal 0.881921 -0.471396 0.000000
outer loop
vertex 0.923880 -0.382683 -10.000000
vertex 0.831470 -0.555570 10.000000
vertex 0.831470 -0.555570 -10.000000
endloop
endfacet
facet normal 0.773010 -0.634394 0.000000
outer loop
vertex 0.831470 -0.555570 -10.000000
vertex 0.831470 -0.555570 10.000000
vertex 0.707107 -0.707107 10.000000
endloop
endfacet
facet normal 0.773011 -0.634393 0.000000
outer loop
vertex 0.831470 -0.555570 -10.000000
vertex 0.707107 -0.707107 10.000000
vertex 0.707107 -0.707107 -10.000000
endloop
endfacet
facet normal 0.634393 -0.773010 0.000000
outer loop
vertex 0.707107 -0.707107 -10.000000
vertex 0.707107 -0.707107 10.000000
vertex 0.555570 -0.831470 10.000000
endloop
endfacet
facet normal 0.634393 -0.773011 0.000000
outer loop
vertex 0.707107 -0.707107 -10.000000
vertex 0.555570 -0.831470 10.000000
vertex 0.555570 -0.831470 -10.000000
endloop
endfacet
facet normal 0.471397 -0.881921 0.000000
outer loop
vertex 0.555570 -0.831470 -10.000000
vertex 0.555570 -0.831470 10.000000
vertex 0.382683 -0.923880 10.000000
endloop
endfacet
facet normal 0.471397 -0.881921 0.000000
outer loop
vertex 0.555570 -0.831470 -10.000000
vertex 0.382683 -0.923880 10.000000
vertex 0.382683 -0.923880 -10.000000
endloop
endfacet
facet normal 0.290284 -0.956940 0.000000
outer loop
vertex 0.382683 -0.923880 -10.000000
vertex 0.382683 -0.923880 10.000000
vertex 0.195090 -0.980785 10.000000
endloop
endfacet
facet normal 0.290284 -0.956940 0.000000
outer loop
vertex 0.382683 -0.923880 -10.000000
vertex 0.195090 -0.980785 10.000000
vertex 0.195090 -0.980785 -10.000000
endloop
endfacet
facet normal 0.098017 -0.995185 0.000000
outer loop
vertex 0.195090 -0.980785 -10.000000
vertex 0.195090 -0.980785 10.000000
vertex -0.000000 -1.000000 10.000000
endloop
endfacet
facet normal 0.098017 -0.995185 0.000000
outer loop
vertex 0.195090 -0.980785 -10.000000
vertex -0.000000 -1.000000 10.000000
vertex -0.000000 -1.000000 -10.000000
endloop
endfacet
facet normal -0.098018 -0.995185 0.000000
outer loop
vertex -0.000000 -1.000000 -10.000000
vertex -0.000000 -1.000000 10.000000
vertex -0.195091 -0.980785 10.000000
endloop
endfacet
facet normal -0.098018 -0.995185 0.000000
outer loop
vertex -0.000000 -1.000000 -10.000000
vertex -0.195091 -0.980785 10.000000
vertex -0.195091 -0.980785 -10.000000
endloop
endfacet
facet normal -0.290285 -0.956940 0.000000
outer loop
vertex -0.195091 -0.980785 -10.000000
vertex -0.195091 -0.980785 10.000000
vertex -0.382684 -0.923879 10.000000
endloop
endfacet
facet normal -0.290285 -0.956940 0.000000
outer loop
vertex -0.195091 -0.980785 -10.000000
vertex -0.382684 -0.923879 10.000000
vertex -0.382684 -0.923879 -10.000000
endloop
endfacet
facet normal -0.471397 -0.881921 0.000000
outer loop
vertex -0.382684 -0.923879 -10.000000
vertex -0.382684 -0.923879 10.000000
vertex -0.555571 -0.831469 10.000000
endloop
endfacet
facet normal -0.471397 -0.881921 0.000000
outer loop
vertex -0.382684 -0.923879 -10.000000
vertex -0.555571 -0.831469 10.000000
vertex -0.555571 -0.831469 -10.000000
endloop
endfacet
facet normal -0.634394 -0.773010 0.000000
outer loop
vertex -0.555571 -0.831469 -10.000000
vertex -0.555571 -0.831469 10.000000
vertex -0.707107 -0.707106 10.000000
endloop
endfacet
facet normal -0.634394 -0.773010 0.000000
outer loop
vertex -0.555571 -0.831469 -10.000000
vertex -0.707107 -0.707106 10.000000
vertex -0.707107 -0.707106 -10.000000
endloop
endfacet
facet normal -0.773011 -0.634393 0.000000
outer loop
vertex -0.707107 -0.707106 -10.000000
vertex -0.707107 -0.707106 10.000000
vertex -0.831470 -0.555570 10.000000
endloop
endfacet
facet normal -0.773011 -0.634393 0.000000
outer loop
vertex -0.707107 -0.707106 -10.000000
vertex -0.831470 -0.555570 10.000000
vertex -0.831470 -0.555570 -10.000000
endloop
endfacet
facet normal -0.881921 -0.471396 0.000000
outer loop
vertex -0.831470 -0.555570 -10.000000
vertex -0.831470 -0.555570 10.000000
vertex -0.923880 -0.382683 10.000000
endloop
endfacet
facet normal -0.881922 -0.471396 0.000000
outer loop
vertex -0.831470 -0.555570 -10.000000
vertex -0.923880 -0.382683 10.000000
vertex -0.923880 -0.382683 -10.000000
endloop
endfacet
facet normal -0.956941 -0.290284 0.000000
outer loop
vertex -0.923880 -0.382683 -10.000000
vertex -0.923880 -0.382683 10.000000
vertex -0.980785 -0.195089 10.000000
endloop
endfacet
facet normal -0.956940 -0.290285 0.000000
outer loop
vertex -0.923880 -0.382683 -10.000000
vertex -0.980785 -0.195089 10.000000
vertex -0.980785 -0.195089 -10.000000
endloop
endfacet
facet normal -0.995185 -0.098016 0.000000
outer loop
vertex -0.980785 -0.195089 -10.000000
vertex -0.980785 -0.195089 10.000000
vertex -1.000000 0.000001 10.000000
endloop
endfacet
facet normal -0.995185 -0.098017 0.000000
outer loop
vertex -0.980785 -0.195089 -10.000000
vertex -1.000000 0.000001 10.000000
vertex -1.000000 0.000001 -10.000000
endloop
endfacet
facet normal -0.995185 0.098018 0.000000
outer loop
vertex -1.000000 0.000001 -10.000000
vertex -1.000000 0.000001 10.000000
vertex -0.980785 0.195091 10.000000
endloop
endfacet
facet normal -0.995185 0.098019 0.000000
outer loop
vertex -1.000000 0.000001 -10.000000
vertex -0.980785 0.195091 10.000000
vertex -0.980785 0.195091 -10.000000
endloop
endfacet
facet normal -0.956940 0.290286 0.000000
outer loop
vertex -0.980785 0.195091 -10.000000
vertex -0.980785 0.195091 10.000000
vertex -0.923879 0.382684 10.000000
endloop
endfacet
facet normal -0.956940 0.290286 0.000000
outer loop
vertex -0.980785 0.195091 -10.000000
vertex -0.923879 0.382684 10.000000
vertex -0.923879 0.382684 -10.000000
endloop
endfacet
facet normal -0.881921 0.471397 0.000000
outer loop
vertex -0.923879 0.382684 -10.000000
vertex -0.923879 0.382684 10.000000
vertex -0.831469 0.555571 10.000000
endloop
endfacet
facet normal -0.881921 0.471397 0.000000
outer loop
vertex -0.923879 0.382684 -10.000000
vertex -0.831469 0.555571 10.000000
vertex -0.831469 0.555571 -10.000000
endloop
endfacet
facet normal -0.773009 0.634395 0.000000
outer loop
vertex -0.831469 0.555571 -10.000000
vertex -0.831469 0.555571 10.000000
vertex -0.707106 0.707108 10.000000
endloop
endfacet
facet normal -0.773010 0.634394 0.000000
outer loop
vertex -0.831469 0.555571 -10.000000
vertex -0.707106 0.707108 10.000000
vertex -0.707106 0.707108 -10.000000
endloop
endfacet
facet normal -0.634393 0.773011 0.000000
outer loop
vertex -0.707106 0.707108 -10.000000
vertex -0.707106 0.707108 10.000000
vertex -0.555569 0.831470 10.000000
endloop
endfacet
facet normal -0.634392 0.773011 0.000000
outer loop
vertex -0.707106 0.707108 -10.000000
vertex -0.555569 0.831470 10.000000
vertex -0.555569 0.831470 -10.000000
endloop
endfacet
facet normal -0.471395 0.881922 0.000000
outer loop
vertex -0.555569 0.831470 -10.000000
vertex -0.555569 0.831470 10.000000
vertex -0.382682 0.923880 10.000000
endloop
endfacet
facet normal -0.471395 0.881922 0.000000
outer loop
vertex -0.555569 0.831470 -10.000000
vertex -0.382682 0.923880 10.000000
vertex -0.382682 0.923880 -10.000000
endloop
endfacet
facet normal -0.290283 0.956941 0.000000
outer loop
vertex -0.382682 0.923880 -10.000000
vertex -0.382682 0.923880 10.000000
vertex -0.195089 0.980786 10.000000
endloop
endfacet
facet normal -0.290283 0.956941 0.000000
outer loop
vertex -0.382682 0.923880 -10.000000
vertex -0.195089 0.980786 10.000000
vertex -0.195089 0.980786 -10.000000
endloop
endfacet
facet normal -0.098017 0.995185 0.000000
outer loop
vertex -0.195089 0.980786 -10.000000
vertex -0.195089 0.980786 10.000000
vertex 0.000000 1.000000 10.000000
endloop
endfacet
facet normal -0.098017 0.995185 0.000000
outer loop
vertex -0.195089 0.980786 -10.000000
vertex 0.000000 1.000000 10.000000
vertex 0.000000 1.000000 -10.000000
endloop
endfacet
endsolid Exported from Blender-2.91.0
